<svg xmlns="http://www.w3.org/2000/svg" width="512" height="512"><metadata>Copyright (C) AIZAWA Hina. All rights reserved.</metadata><defs><linearGradient id="a" x1="0" x2="0" y1="0" y2="1"><stop offset="0%" stop-color="#ded6d3"/><stop offset="100%" stop-color="#c7b9b4"/></linearGradient><linearGradient id="b" x1="0" x2="0" y1="0" y2="1"><stop offset="0%" stop-color="#b2a5a0"/><stop offset="100%" stop-color="#9f8f89"/></linearGradient><linearGradient id="c" x1="0" x2="0" y1="0" y2="1"><stop offset="0%" stop-color="#705b55"/><stop offset="100%" stop-color="#62504a"/></linearGradient></defs><rect width="96.875%" height="96.875%" x="1.563%" y="1.563%" fill="url(#a)" stroke="url(#b)" stroke-width="3.125%" rx="12.5%" ry="12.5%"/><path fill="url(#c)" d="M321 752q41 0 73.5-7.5T444 730q-3-33-13-68t-18-58h-34l-44 95q-26 0-43.5-5.5t-28-21.5-15.5-45.5-5-76.5v-50h106v-63H243V63q52-6 96-24V0H33v39q31 18 66 24v374H23v39q35 22 76 33v35q0 62 17.5 102.5t47.5 64 70.5 32.5 86.5 9z" transform="matrix(.57 0 0 -.57 132 470.13)"><metadata>Copyright (c) 2010 ParaType Ltd. All rights reserved.</metadata></path></svg>
